M48
; DRILL file {KiCad (6.0.1)} date Sat Feb 12 18:16:17 2022
; FORMAT={-:-/ absolute / metric / decimal}
; #@! TF.CreationDate,2022-02-12T18:16:17+09:00
; #@! TF.GenerationSoftware,Kicad,Pcbnew,(6.0.1)
; #@! TF.FileFunction,MixedPlating,1,2
FMAT,2
METRIC
; #@! TA.AperFunction,Plated,PTH,ComponentDrill
T1C0.300
; #@! TA.AperFunction,Plated,PTH,ViaDrill
T2C0.400
; #@! TA.AperFunction,Plated,PTH,ComponentDrill
T3C0.400
; #@! TA.AperFunction,Plated,PTH,ComponentDrill
T4C0.650
; #@! TA.AperFunction,Plated,PTH,ComponentDrill
T5C0.700
; #@! TA.AperFunction,Plated,PTH,ComponentDrill
T6C1.000
; #@! TA.AperFunction,Plated,PTH,ComponentDrill
T7C3.200
; #@! TA.AperFunction,NonPlated,NPTH,ComponentDrill
T8C5.000
%
G90
G05
T2
X85.33Y-82.765
X143.2Y-91.5
X143.5Y-99.0
X144.5Y-83.5
X145.25Y-85.208
X145.75Y-101.25
X146.308Y-91.468
X148.51Y-95.36
X148.75Y-26.5
X148.75Y-28.75
X149.701Y-24.095
X151.5Y-26.5
X151.5Y-28.75
X152.339Y-79.094
X152.75Y-25.25
X153.12Y-97.13
X154.1Y-78.9
X155.169Y-83.256
X156.22Y-80.68
X156.25Y-103.674
X156.449Y-84.122
X157.55Y-87.55
X157.57Y-97.19
X157.59Y-82.17
X158.7Y-78.4
X158.762Y-100.762
X158.954Y-84.359
X159.0Y-93.675
X161.0Y-79.1
X162.75Y-97.5
X163.5Y-85.75
X163.6Y-79.6
X164.0Y-92.25
X164.25Y-96.25
X165.0Y-85.826
X165.0Y-91.0
X165.75Y-95.0
X167.0Y-93.724
T6
X84.0Y-84.975
X84.0Y-87.515
X84.0Y-90.055
X86.54Y-84.975
X86.54Y-87.515
X86.54Y-90.055
T7
X86.36Y-22.86
X86.36Y-152.4
X215.9Y-22.86
X215.9Y-152.4
T8
X101.6Y-38.0
X101.6Y-71.0
X101.6Y-104.0
X101.6Y-137.0
X134.62Y-38.0
X134.62Y-71.0
X134.62Y-104.0
X134.62Y-137.0
X167.64Y-38.0
X167.64Y-71.0
X167.64Y-104.0
X167.64Y-137.0
X200.66Y-38.0
X200.66Y-71.0
X200.66Y-104.0
X200.66Y-137.0
T1
G00X101.25Y-43.9
M15
G01X101.95Y-43.9
M16
G05
G00X101.25Y-76.9
M15
G01X101.95Y-76.9
M16
G05
G00X101.25Y-109.9
M15
G01X101.95Y-109.9
M16
G05
G00X101.25Y-142.9
M15
G01X101.95Y-142.9
M16
G05
G00X106.25Y-32.45
M15
G01X106.95Y-32.45
M16
G05
G00X106.25Y-65.45
M15
G01X106.95Y-65.45
M16
G05
G00X106.25Y-98.45
M15
G01X106.95Y-98.45
M16
G05
G00X106.25Y-131.45
M15
G01X106.95Y-131.45
M16
G05
G00X134.27Y-43.9
M15
G01X134.97Y-43.9
M16
G05
G00X134.27Y-76.9
M15
G01X134.97Y-76.9
M16
G05
G00X134.27Y-109.9
M15
G01X134.97Y-109.9
M16
G05
G00X134.27Y-142.9
M15
G01X134.97Y-142.9
M16
G05
G00X139.27Y-32.45
M15
G01X139.97Y-32.45
M16
G05
G00X139.27Y-65.45
M15
G01X139.97Y-65.45
M16
G05
G00X139.27Y-98.45
M15
G01X139.97Y-98.45
M16
G05
G00X139.27Y-131.45
M15
G01X139.97Y-131.45
M16
G05
G00X167.29Y-43.9
M15
G01X167.99Y-43.9
M16
G05
G00X167.29Y-76.9
M15
G01X167.99Y-76.9
M16
G05
G00X167.29Y-109.9
M15
G01X167.99Y-109.9
M16
G05
G00X167.29Y-142.9
M15
G01X167.99Y-142.9
M16
G05
G00X172.29Y-32.45
M15
G01X172.99Y-32.45
M16
G05
G00X172.29Y-65.45
M15
G01X172.99Y-65.45
M16
G05
G00X172.29Y-98.45
M15
G01X172.99Y-98.45
M16
G05
G00X172.29Y-131.45
M15
G01X172.99Y-131.45
M16
G05
G00X200.31Y-43.9
M15
G01X201.01Y-43.9
M16
G05
G00X200.31Y-76.9
M15
G01X201.01Y-76.9
M16
G05
G00X200.31Y-109.9
M15
G01X201.01Y-109.9
M16
G05
G00X200.31Y-142.9
M15
G01X201.01Y-142.9
M16
G05
G00X205.31Y-32.45
M15
G01X206.01Y-32.45
M16
G05
G00X205.31Y-65.45
M15
G01X206.01Y-65.45
M16
G05
G00X205.31Y-98.45
M15
G01X206.01Y-98.45
M16
G05
G00X205.31Y-131.45
M15
G01X206.01Y-131.45
M16
G05
T3
G00X96.3Y-41.8
M15
G01X96.9Y-41.8
M16
G05
G00X96.3Y-74.8
M15
G01X96.9Y-74.8
M16
G05
G00X96.3Y-107.8
M15
G01X96.9Y-107.8
M16
G05
G00X96.3Y-140.8
M15
G01X96.9Y-140.8
M16
G05
G00X129.32Y-41.8
M15
G01X129.92Y-41.8
M16
G05
G00X129.32Y-74.8
M15
G01X129.92Y-74.8
M16
G05
G00X129.32Y-107.8
M15
G01X129.92Y-107.8
M16
G05
G00X129.32Y-140.8
M15
G01X129.92Y-140.8
M16
G05
G00X162.34Y-41.8
M15
G01X162.94Y-41.8
M16
G05
G00X162.34Y-74.8
M15
G01X162.94Y-74.8
M16
G05
G00X162.34Y-107.8
M15
G01X162.94Y-107.8
M16
G05
G00X162.34Y-140.8
M15
G01X162.94Y-140.8
M16
G05
G00X195.36Y-41.8
M15
G01X195.96Y-41.8
M16
G05
G00X195.36Y-74.8
M15
G01X195.96Y-74.8
M16
G05
G00X195.36Y-107.8
M15
G01X195.96Y-107.8
M16
G05
G00X195.36Y-140.8
M15
G01X195.96Y-140.8
M16
G05
T4
G00X148.655Y-20.085
M15
G01X148.655Y-20.485
M16
G05
G00X153.495Y-20.085
M15
G01X153.495Y-20.485
M16
G05
T5
G00X148.345Y-17.035
M15
G01X148.345Y-17.535
M16
G05
G00X153.805Y-17.035
M15
G01X153.805Y-17.535
M16
G05
T0
M30
