%TF.GenerationSoftware,KiCad,Pcbnew,(6.0.1)*%
%TF.CreationDate,2022-02-12T18:16:10+09:00*%
%TF.ProjectId,FlatFighter_rev4,466c6174-4669-4676-9874-65725f726576,0*%
%TF.SameCoordinates,Original*%
%TF.FileFunction,Legend,Top*%
%TF.FilePolarity,Positive*%
%FSLAX46Y46*%
G04 Gerber Fmt 4.6, Leading zero omitted, Abs format (unit mm)*
G04 Created by KiCad (PCBNEW (6.0.1)) date 2022-02-12 18:16:10*
%MOMM*%
%LPD*%
G01*
G04 APERTURE LIST*
G04 Aperture macros list*
%AMRoundRect*
0 Rectangle with rounded corners*
0 $1 Rounding radius*
0 $2 $3 $4 $5 $6 $7 $8 $9 X,Y pos of 4 corners*
0 Add a 4 corners polygon primitive as box body*
4,1,4,$2,$3,$4,$5,$6,$7,$8,$9,$2,$3,0*
0 Add four circle primitives for the rounded corners*
1,1,$1+$1,$2,$3*
1,1,$1+$1,$4,$5*
1,1,$1+$1,$6,$7*
1,1,$1+$1,$8,$9*
0 Add four rect primitives between the rounded corners*
20,1,$1+$1,$2,$3,$4,$5,0*
20,1,$1+$1,$4,$5,$6,$7,0*
20,1,$1+$1,$6,$7,$8,$9,0*
20,1,$1+$1,$8,$9,$2,$3,0*%
G04 Aperture macros list end*
%ADD10C,0.120000*%
%ADD11RoundRect,0.287500X-0.962500X-0.287500X0.962500X-0.287500X0.962500X0.287500X-0.962500X0.287500X0*%
%ADD12C,5.000000*%
%ADD13RoundRect,0.375000X-1.000000X-0.375000X1.000000X-0.375000X1.000000X0.375000X-1.000000X0.375000X0*%
%ADD14RoundRect,0.325000X-1.050000X-0.325000X1.050000X-0.325000X1.050000X0.325000X-1.050000X0.325000X0*%
%ADD15R,1.700000X1.700000*%
%ADD16O,1.700000X1.700000*%
%ADD17C,5.700000*%
%ADD18O,1.350000X1.700000*%
%ADD19O,1.100000X1.500000*%
G04 APERTURE END LIST*
D10*
%TO.C,SW7*%
X174990000Y-96650000D02*
X160290000Y-96650000D01*
X160290000Y-111350000D02*
X174990000Y-111350000D01*
X174990000Y-111350000D02*
X174990000Y-96650000D01*
X160290000Y-96650000D02*
X160290000Y-111350000D01*
%TO.C,SW2*%
X141970000Y-129650000D02*
X127270000Y-129650000D01*
X127270000Y-144350000D02*
X141970000Y-144350000D01*
X141970000Y-144350000D02*
X141970000Y-129650000D01*
X127270000Y-129650000D02*
X127270000Y-144350000D01*
%TO.C,SW8*%
X208010000Y-96650000D02*
X193310000Y-96650000D01*
X193310000Y-111350000D02*
X208010000Y-111350000D01*
X208010000Y-111350000D02*
X208010000Y-96650000D01*
X193310000Y-96650000D02*
X193310000Y-111350000D01*
%TO.C,SW6*%
X141970000Y-96650000D02*
X127270000Y-96650000D01*
X127270000Y-111350000D02*
X141970000Y-111350000D01*
X141970000Y-111350000D02*
X141970000Y-96650000D01*
X127270000Y-96650000D02*
X127270000Y-111350000D01*
%TO.C,SW12*%
X208010000Y-63650000D02*
X193310000Y-63650000D01*
X193310000Y-78350000D02*
X208010000Y-78350000D01*
X208010000Y-78350000D02*
X208010000Y-63650000D01*
X193310000Y-63650000D02*
X193310000Y-78350000D01*
%TO.C,SW11*%
X174990000Y-63650000D02*
X160290000Y-63650000D01*
X160290000Y-78350000D02*
X174990000Y-78350000D01*
X174990000Y-78350000D02*
X174990000Y-63650000D01*
X160290000Y-63650000D02*
X160290000Y-78350000D01*
%TO.C,SW14*%
X141970000Y-30650000D02*
X127270000Y-30650000D01*
X127270000Y-45350000D02*
X141970000Y-45350000D01*
X141970000Y-45350000D02*
X141970000Y-30650000D01*
X127270000Y-30650000D02*
X127270000Y-45350000D01*
%TO.C,SW5*%
X108950000Y-96650000D02*
X94250000Y-96650000D01*
X94250000Y-111350000D02*
X108950000Y-111350000D01*
X108950000Y-111350000D02*
X108950000Y-96650000D01*
X94250000Y-96650000D02*
X94250000Y-111350000D01*
%TO.C,SW10*%
X141970000Y-63650000D02*
X127270000Y-63650000D01*
X127270000Y-78350000D02*
X141970000Y-78350000D01*
X141970000Y-78350000D02*
X141970000Y-63650000D01*
X127270000Y-63650000D02*
X127270000Y-78350000D01*
%TO.C,SW3*%
X174990000Y-129650000D02*
X160290000Y-129650000D01*
X160290000Y-144350000D02*
X174990000Y-144350000D01*
X174990000Y-144350000D02*
X174990000Y-129650000D01*
X160290000Y-129650000D02*
X160290000Y-144350000D01*
%TO.C,SW1*%
X108950000Y-129650000D02*
X94250000Y-129650000D01*
X94250000Y-144350000D02*
X108950000Y-144350000D01*
X108950000Y-144350000D02*
X108950000Y-129650000D01*
X94250000Y-129650000D02*
X94250000Y-144350000D01*
%TO.C,SW9*%
X108950000Y-63650000D02*
X94250000Y-63650000D01*
X94250000Y-78350000D02*
X108950000Y-78350000D01*
X108950000Y-78350000D02*
X108950000Y-63650000D01*
X94250000Y-63650000D02*
X94250000Y-78350000D01*
%TO.C,SW15*%
X174990000Y-30650000D02*
X160290000Y-30650000D01*
X160290000Y-45350000D02*
X174990000Y-45350000D01*
X174990000Y-45350000D02*
X174990000Y-30650000D01*
X160290000Y-30650000D02*
X160290000Y-45350000D01*
%TO.C,SW13*%
X108950000Y-30650000D02*
X94250000Y-30650000D01*
X94250000Y-45350000D02*
X108950000Y-45350000D01*
X108950000Y-45350000D02*
X108950000Y-30650000D01*
X94250000Y-30650000D02*
X94250000Y-45350000D01*
%TO.C,SW4*%
X208010000Y-129650000D02*
X193310000Y-129650000D01*
X193310000Y-144350000D02*
X208010000Y-144350000D01*
X208010000Y-144350000D02*
X208010000Y-129650000D01*
X193310000Y-129650000D02*
X193310000Y-144350000D01*
%TO.C,SW16*%
X208010000Y-30650000D02*
X193310000Y-30650000D01*
X193310000Y-45350000D02*
X208010000Y-45350000D01*
X208010000Y-45350000D02*
X208010000Y-30650000D01*
X193310000Y-30650000D02*
X193310000Y-45350000D01*
%TO.C,P4*%
X82670000Y-83645000D02*
X84000000Y-83645000D01*
X82670000Y-91385000D02*
X87870000Y-91385000D01*
X82670000Y-84975000D02*
X82670000Y-83645000D01*
X85270000Y-83645000D02*
X87870000Y-83645000D01*
X85270000Y-86245000D02*
X85270000Y-83645000D01*
X82670000Y-86245000D02*
X85270000Y-86245000D01*
X87870000Y-83645000D02*
X87870000Y-91385000D01*
X82670000Y-86245000D02*
X82670000Y-91385000D01*
%TD*%
%LPC*%
D11*
%TO.C,SW7*%
X172640000Y-98450000D03*
D12*
X167640000Y-104000000D03*
D13*
X162640000Y-107800000D03*
D14*
X167640000Y-109900000D03*
%TD*%
D11*
%TO.C,SW2*%
X139620000Y-131450000D03*
D12*
X134620000Y-137000000D03*
D13*
X129620000Y-140800000D03*
D14*
X134620000Y-142900000D03*
%TD*%
D11*
%TO.C,SW8*%
X205660000Y-98450000D03*
D12*
X200660000Y-104000000D03*
D13*
X195660000Y-107800000D03*
D14*
X200660000Y-109900000D03*
%TD*%
D11*
%TO.C,SW6*%
X139620000Y-98450000D03*
D12*
X134620000Y-104000000D03*
D13*
X129620000Y-107800000D03*
D14*
X134620000Y-109900000D03*
%TD*%
D11*
%TO.C,SW12*%
X205660000Y-65450000D03*
D12*
X200660000Y-71000000D03*
D13*
X195660000Y-74800000D03*
D14*
X200660000Y-76900000D03*
%TD*%
D11*
%TO.C,SW11*%
X172640000Y-65450000D03*
D12*
X167640000Y-71000000D03*
D13*
X162640000Y-74800000D03*
D14*
X167640000Y-76900000D03*
%TD*%
D11*
%TO.C,SW14*%
X139620000Y-32450000D03*
D12*
X134620000Y-38000000D03*
D13*
X129620000Y-41800000D03*
D14*
X134620000Y-43900000D03*
%TD*%
D11*
%TO.C,SW5*%
X106600000Y-98450000D03*
D12*
X101600000Y-104000000D03*
D13*
X96600000Y-107800000D03*
D14*
X101600000Y-109900000D03*
%TD*%
D11*
%TO.C,SW10*%
X139620000Y-65450000D03*
D12*
X134620000Y-71000000D03*
D13*
X129620000Y-74800000D03*
D14*
X134620000Y-76900000D03*
%TD*%
D11*
%TO.C,SW3*%
X172640000Y-131450000D03*
D12*
X167640000Y-137000000D03*
D13*
X162640000Y-140800000D03*
D14*
X167640000Y-142900000D03*
%TD*%
D11*
%TO.C,SW1*%
X106600000Y-131450000D03*
D12*
X101600000Y-137000000D03*
D13*
X96600000Y-140800000D03*
D14*
X101600000Y-142900000D03*
%TD*%
D11*
%TO.C,SW9*%
X106600000Y-65450000D03*
D12*
X101600000Y-71000000D03*
D13*
X96600000Y-74800000D03*
D14*
X101600000Y-76900000D03*
%TD*%
D11*
%TO.C,SW15*%
X172640000Y-32450000D03*
D12*
X167640000Y-38000000D03*
D13*
X162640000Y-41800000D03*
D14*
X167640000Y-43900000D03*
%TD*%
D11*
%TO.C,SW13*%
X106600000Y-32450000D03*
D12*
X101600000Y-38000000D03*
D13*
X96600000Y-41800000D03*
D14*
X101600000Y-43900000D03*
%TD*%
D11*
%TO.C,SW4*%
X205660000Y-131450000D03*
D12*
X200660000Y-137000000D03*
D13*
X195660000Y-140800000D03*
D14*
X200660000Y-142900000D03*
%TD*%
D11*
%TO.C,SW16*%
X205660000Y-32450000D03*
D12*
X200660000Y-38000000D03*
D13*
X195660000Y-41800000D03*
D14*
X200660000Y-43900000D03*
%TD*%
D15*
%TO.C,P4*%
X84000000Y-84975000D03*
D16*
X86540000Y-84975000D03*
X84000000Y-87515000D03*
X86540000Y-87515000D03*
X84000000Y-90055000D03*
X86540000Y-90055000D03*
%TD*%
D17*
%TO.C,REF1*%
X86360000Y-22860000D03*
%TD*%
%TO.C,REF2*%
X215900000Y-22860000D03*
%TD*%
%TO.C,REF4*%
X215900000Y-152400000D03*
%TD*%
%TO.C,REF3*%
X86360000Y-152400000D03*
%TD*%
D18*
%TO.C,P2*%
X153805000Y-17285000D03*
D19*
X148655000Y-20285000D03*
D18*
X148345000Y-17285000D03*
D19*
X153495000Y-20285000D03*
%TD*%
M02*
